<svg width="123" height="25" viewBox="0 0 123 25" fill="none" xmlns="http://www.w3.org/2000/svg">
<rect width="123" height="25" fill="black"/>
<path d="M10.9395 13.4932V17H8.88867V7.04688H12.7715C13.5189 7.04688 14.1751 7.18359 14.7402 7.45703C15.3099 7.73047 15.7474 8.12012 16.0527 8.62598C16.3581 9.12728 16.5107 9.69922 16.5107 10.3418C16.5107 11.3171 16.1758 12.0872 15.5059 12.6523C14.8405 13.2129 13.9176 13.4932 12.7373 13.4932H10.9395ZM10.9395 11.832H12.7715C13.3138 11.832 13.7262 11.7044 14.0088 11.4492C14.2959 11.194 14.4395 10.8294 14.4395 10.3555C14.4395 9.86784 14.2959 9.47363 14.0088 9.17285C13.7217 8.87207 13.3252 8.71712 12.8193 8.70801H10.9395V11.832ZM22 17C21.9089 16.8223 21.8428 16.6012 21.8018 16.3369C21.3232 16.8701 20.7012 17.1367 19.9355 17.1367C19.2109 17.1367 18.6094 16.9271 18.1309 16.5078C17.6569 16.0885 17.4199 15.5599 17.4199 14.9219C17.4199 14.138 17.7093 13.5365 18.2881 13.1172C18.8714 12.6979 19.7122 12.486 20.8105 12.4814H21.7197V12.0576C21.7197 11.7158 21.6309 11.4424 21.4531 11.2373C21.2799 11.0322 21.0042 10.9297 20.626 10.9297C20.2933 10.9297 20.0312 11.0094 19.8398 11.1689C19.653 11.3285 19.5596 11.5472 19.5596 11.8252H17.584C17.584 11.3968 17.7161 11.0003 17.9805 10.6357C18.2448 10.2712 18.6185 9.98633 19.1016 9.78125C19.5846 9.57161 20.127 9.4668 20.7285 9.4668C21.64 9.4668 22.3623 9.69694 22.8955 10.1572C23.4333 10.613 23.7021 11.2555 23.7021 12.085V15.291C23.7067 15.9928 23.8047 16.5238 23.9961 16.8838V17H22ZM20.3662 15.626C20.6579 15.626 20.9268 15.5622 21.1729 15.4346C21.4189 15.3024 21.6012 15.127 21.7197 14.9082V13.6367H20.9814C19.9925 13.6367 19.4661 13.9785 19.4023 14.6621L19.3955 14.7783C19.3955 15.0244 19.4821 15.2272 19.6553 15.3867C19.8285 15.5462 20.0654 15.626 20.3662 15.626ZM27.8721 14.2041L29.2393 9.60352H31.3584L28.3848 18.1484L28.2207 18.5381C27.7786 19.5042 27.0495 19.9873 26.0332 19.9873C25.7461 19.9873 25.4544 19.944 25.1582 19.8574V18.3604L25.459 18.3672C25.8327 18.3672 26.1107 18.3102 26.293 18.1963C26.4798 18.0824 26.6257 17.8932 26.7305 17.6289L26.9629 17.0205L24.3721 9.60352H26.498L27.8721 14.2041ZM33.9902 9.60352L34.0518 10.4307C34.5758 9.78809 35.2845 9.4668 36.1777 9.4668C37.1302 9.4668 37.7842 9.84277 38.1396 10.5947C38.6592 9.84277 39.3997 9.4668 40.3613 9.4668C41.1634 9.4668 41.7604 9.7015 42.1523 10.1709C42.5443 10.6357 42.7402 11.3376 42.7402 12.2764V17H40.7578V12.2832C40.7578 11.8639 40.6758 11.5586 40.5117 11.3672C40.3477 11.1712 40.0583 11.0732 39.6436 11.0732C39.0511 11.0732 38.641 11.3558 38.4131 11.9209L38.4199 17H36.4443V12.29C36.4443 11.8617 36.36 11.5518 36.1914 11.3604C36.0228 11.1689 35.7357 11.0732 35.3301 11.0732C34.7695 11.0732 34.3639 11.3057 34.1133 11.7705V17H32.1377V9.60352H33.9902ZM47.6689 17.1367C46.5843 17.1367 45.7002 16.804 45.0166 16.1387C44.3376 15.4733 43.998 14.5869 43.998 13.4795V13.2881C43.998 12.5452 44.1416 11.8822 44.4287 11.2988C44.7158 10.7109 45.1214 10.2598 45.6455 9.94531C46.1742 9.6263 46.7757 9.4668 47.4502 9.4668C48.4619 9.4668 49.2572 9.78581 49.8359 10.4238C50.4193 11.0618 50.7109 11.9665 50.7109 13.1377V13.9443H46.001C46.0648 14.4274 46.2562 14.8148 46.5752 15.1064C46.8988 15.3981 47.3066 15.5439 47.7988 15.5439C48.5599 15.5439 49.1546 15.2682 49.583 14.7168L50.5537 15.8037C50.2575 16.223 49.8564 16.5511 49.3506 16.7881C48.8447 17.0205 48.2842 17.1367 47.6689 17.1367ZM47.4434 11.0664C47.0514 11.0664 46.7324 11.1986 46.4863 11.4629C46.2448 11.7272 46.0898 12.1055 46.0215 12.5977H48.7695V12.4404C48.7604 12.0029 48.6419 11.6657 48.4141 11.4287C48.1862 11.1872 47.8626 11.0664 47.4434 11.0664ZM53.6572 9.60352L53.7188 10.458C54.2474 9.7972 54.9561 9.4668 55.8447 9.4668C56.6286 9.4668 57.2119 9.69694 57.5947 10.1572C57.9775 10.6175 58.1735 11.3057 58.1826 12.2217V17H56.207V12.2695C56.207 11.8503 56.1159 11.5472 55.9336 11.3604C55.7513 11.1689 55.4482 11.0732 55.0244 11.0732C54.4684 11.0732 54.0514 11.3102 53.7734 11.7842V17H51.7979V9.60352H53.6572ZM62.0518 7.78516V9.60352H63.3164V11.0527H62.0518V14.7441C62.0518 15.0176 62.1042 15.2135 62.209 15.332C62.3138 15.4505 62.5143 15.5098 62.8105 15.5098C63.0293 15.5098 63.223 15.4938 63.3916 15.4619V16.959C63.0042 17.0775 62.6055 17.1367 62.1953 17.1367C60.8099 17.1367 60.1035 16.4372 60.0762 15.0381V11.0527H58.9961V9.60352H60.0762V7.78516H62.0518ZM70.7129 7.04688L73.2695 14.2656L75.8125 7.04688H78.5059V17H76.4482V14.2793L76.6533 9.58301L73.9668 17H72.5586L69.8789 9.58984L70.084 14.2793V17H68.0332V7.04688H70.7129ZM83.5713 17.1367C82.4867 17.1367 81.6025 16.804 80.9189 16.1387C80.2399 15.4733 79.9004 14.5869 79.9004 13.4795V13.2881C79.9004 12.5452 80.0439 11.8822 80.3311 11.2988C80.6182 10.7109 81.0238 10.2598 81.5479 9.94531C82.0765 9.6263 82.6781 9.4668 83.3525 9.4668C84.3643 9.4668 85.1595 9.78581 85.7383 10.4238C86.3216 11.0618 86.6133 11.9665 86.6133 13.1377V13.9443H81.9033C81.9671 14.4274 82.1585 14.8148 82.4775 15.1064C82.8011 15.3981 83.209 15.5439 83.7012 15.5439C84.4622 15.5439 85.057 15.2682 85.4854 14.7168L86.4561 15.8037C86.1598 16.223 85.7588 16.5511 85.2529 16.7881C84.7471 17.0205 84.1865 17.1367 83.5713 17.1367ZM83.3457 11.0664C82.9538 11.0664 82.6348 11.1986 82.3887 11.4629C82.1471 11.7272 81.9922 12.1055 81.9238 12.5977H84.6719V12.4404C84.6628 12.0029 84.5443 11.6657 84.3164 11.4287C84.0885 11.1872 83.765 11.0664 83.3457 11.0664ZM90.1064 7.78516V9.60352H91.3711V11.0527H90.1064V14.7441C90.1064 15.0176 90.1589 15.2135 90.2637 15.332C90.3685 15.4505 90.569 15.5098 90.8652 15.5098C91.084 15.5098 91.2777 15.4938 91.4463 15.4619V16.959C91.0589 17.0775 90.6602 17.1367 90.25 17.1367C88.8646 17.1367 88.1582 16.4372 88.1309 15.0381V11.0527H87.0508V9.60352H88.1309V7.78516H90.1064ZM94.3994 10.4102C94.9235 9.78125 95.582 9.4668 96.375 9.4668C97.9792 9.4668 98.7926 10.3988 98.8154 12.2627V17H96.8398V12.3174C96.8398 11.8936 96.7487 11.5814 96.5664 11.3809C96.3841 11.1758 96.0811 11.0732 95.6572 11.0732C95.0785 11.0732 94.6592 11.2965 94.3994 11.7432V17H92.4238V6.5H94.3994V10.4102ZM99.998 13.2334C99.998 12.4997 100.139 11.8457 100.422 11.2715C100.704 10.6973 101.11 10.2529 101.639 9.93848C102.172 9.62402 102.789 9.4668 103.491 9.4668C104.489 9.4668 105.303 9.77214 105.932 10.3828C106.565 10.9935 106.918 11.8229 106.991 12.8711L107.005 13.377C107.005 14.5117 106.688 15.4232 106.055 16.1113C105.421 16.7949 104.571 17.1367 103.505 17.1367C102.438 17.1367 101.586 16.7949 100.948 16.1113C100.315 15.4277 99.998 14.498 99.998 13.3223V13.2334ZM101.974 13.377C101.974 14.0788 102.106 14.6165 102.37 14.9902C102.634 15.3594 103.013 15.5439 103.505 15.5439C103.983 15.5439 104.357 15.3617 104.626 14.9971C104.895 14.6279 105.029 14.04 105.029 13.2334C105.029 12.5452 104.895 12.012 104.626 11.6338C104.357 11.2555 103.979 11.0664 103.491 11.0664C103.008 11.0664 102.634 11.2555 102.37 11.6338C102.106 12.0075 101.974 12.5885 101.974 13.377ZM107.914 13.2471C107.914 12.0941 108.172 11.1758 108.687 10.4922C109.206 9.80859 109.915 9.4668 110.812 9.4668C111.533 9.4668 112.127 9.73568 112.597 10.2734V6.5H114.579V17H112.795L112.699 16.2139C112.207 16.8291 111.574 17.1367 110.799 17.1367C109.928 17.1367 109.229 16.7949 108.7 16.1113C108.176 15.4232 107.914 14.4684 107.914 13.2471ZM109.89 13.3906C109.89 14.0833 110.01 14.6143 110.252 14.9834C110.493 15.3525 110.844 15.5371 111.305 15.5371C111.915 15.5371 112.346 15.2796 112.597 14.7646V11.8457C112.351 11.3307 111.924 11.0732 111.318 11.0732C110.366 11.0732 109.89 11.8457 109.89 13.3906Z" fill="white"/>
</svg>
